<?xml version="1.0" standalone="no"?>
<!DOCTYPE svg PUBLIC "-//W3C//DTD SVG 20010904//EN"
 "http://www.w3.org/TR/2001/REC-SVG-20010904/DTD/svg10.dtd">
<svg version="1.0" xmlns="http://www.w3.org/2000/svg"
 width="652.000000pt" height="652.000000pt" viewBox="0 0 652.000000 652.000000"
 preserveAspectRatio="xMidYMid meet">
<metadata>
Created by potrace 1.14, written by Peter Selinger 2001-2017
</metadata>
<g transform="translate(0.000000,652.000000) scale(0.100000,-0.100000)"
fill="#000000" stroke="none">
<path d="M2150 6484 c0 -5 17 -33 67 -111 18 -28 33 -56 33 -62 0 -6 3 -11 8
-11 4 0 12 -10 17 -23 15 -31 59 -111 65 -117 11 -11 210 -424 210 -436 0 -2
8 -23 19 -47 20 -45 45 -109 46 -117 1 -3 8 -21 16 -40 9 -19 36 -96 61 -170
43 -125 66 -200 105 -340 8 -30 18 -62 21 -70 7 -20 9 -29 17 -69 3 -19 8 -37
10 -41 2 -3 6 -17 9 -31 2 -13 16 -80 31 -149 30 -149 32 -158 45 -235 5 -33
12 -69 14 -80 2 -11 7 -42 10 -70 4 -27 9 -63 11 -80 5 -30 12 -91 21 -175 2
-25 6 -63 9 -85 26 -221 27 -864 1 -1100 -2 -16 -7 -59 -10 -95 -3 -36 -8 -78
-10 -95 -2 -16 -7 -55 -11 -85 -3 -30 -8 -62 -10 -70 -2 -8 -7 -35 -10 -60 -3
-25 -17 -103 -30 -175 -32 -170 -32 -167 -43 -209 -6 -20 -8 -36 -5 -36 3 0 0
-6 -6 -13 -6 -8 -9 -16 -6 -19 3 -3 -1 -27 -9 -54 -8 -27 -33 -115 -55 -195
-40 -143 -103 -345 -121 -384 -5 -11 -22 -58 -39 -105 -18 -47 -35 -92 -40
-100 -5 -9 -12 -31 -16 -50 -7 -34 -7 -34 11 -19 11 9 29 20 42 23 12 4 22 12
22 17 0 5 7 9 16 9 9 0 31 9 48 19 17 11 33 20 36 20 3 0 32 12 65 27 188 84
542 192 750 229 17 2 40 7 51 9 55 11 109 19 232 35 119 15 159 20 262 28 120
10 618 9 730 -1 245 -22 295 -28 311 -37 9 -4 19 -6 22 -3 4 4 137 -16 207
-32 14 -3 36 -7 50 -8 14 -2 32 -6 40 -9 17 -6 64 -17 100 -23 40 -7 238 -66
318 -95 l54 -19 -6 157 c-7 177 -12 262 -21 343 -4 30 -8 69 -10 85 -5 53 -16
127 -36 245 -22 131 -22 132 -43 221 -8 37 -17 78 -20 90 -2 13 -12 53 -21 89
-9 36 -18 70 -19 75 -1 6 -10 37 -20 70 -10 33 -19 65 -20 70 -4 23 -58 181
-67 197 -5 10 -9 23 -9 29 0 17 -121 321 -139 349 -9 13 -15 25 -14 27 7 9
-157 340 -236 476 -28 49 -51 93 -51 98 0 5 -4 9 -10 9 -5 0 -10 4 -10 10 0
10 -120 203 -153 245 -4 6 -22 33 -39 60 -18 28 -35 52 -38 55 -3 3 -27 36
-54 73 -45 64 -218 289 -241 313 -5 6 -32 38 -60 70 -159 186 -373 407 -539
558 -43 39 -86 78 -95 86 -38 36 -162 141 -231 196 -41 32 -77 61 -80 64 -3 4
-23 19 -45 36 -22 16 -46 35 -53 42 -7 6 -17 12 -20 12 -4 0 -18 10 -32 23
-14 12 -49 38 -78 57 -28 19 -52 38 -52 43 0 4 -6 7 -14 7 -8 0 -21 6 -29 14
-8 8 -54 41 -103 72 -49 32 -90 62 -92 66 -2 4 -7 8 -12 8 -12 0 -113 62 -122
75 -4 5 -8 6 -8 1 0 -5 -8 -2 -17 6 -23 19 -157 95 -289 164 -57 29 -112 58
-121 64 -22 12 -233 110 -238 110 -3 0 -28 11 -57 24 -84 38 -128 55 -128 50z"/>
<path d="M2399 5734 c-3 -84 -18 -293 -24 -314 -2 -8 -6 -40 -10 -70 -3 -30
-7 -66 -10 -80 -7 -44 -15 -100 -20 -143 -6 -46 -12 -80 -19 -105 -3 -9 -7
-39 -11 -66 -3 -27 -8 -52 -10 -56 -2 -3 -6 -26 -10 -50 -3 -25 -24 -126 -46
-225 -22 -99 -42 -191 -45 -205 -3 -14 -8 -34 -11 -45 -4 -11 -8 -24 -9 -30
-5 -22 -64 -244 -79 -295 -9 -30 -18 -64 -20 -74 -10 -42 -128 -402 -135 -411
-5 -5 -9 -14 -9 -20 -2 -20 -34 -110 -44 -122 -5 -7 -6 -13 -2 -13 4 0 2 -7
-5 -15 -7 -8 -9 -15 -5 -15 4 0 3 -6 -2 -12 -5 -7 -18 -35 -28 -63 -10 -27
-29 -75 -42 -105 -14 -30 -26 -59 -28 -65 -2 -10 -10 -29 -82 -190 -54 -121
-223 -450 -234 -453 -5 -2 -9 -9 -9 -15 0 -22 -252 -419 -314 -495 -6 -7 -15
-18 -21 -25 -5 -7 -23 -30 -39 -52 -29 -39 -97 -120 -166 -199 -60 -69 -273
-279 -328 -325 -29 -24 -51 -45 -50 -47 2 -1 23 2 47 7 41 9 223 40 321 55 48
7 54 7 167 19 40 3 85 8 100 10 38 5 360 5 398 0 17 -2 57 -7 90 -11 33 -4 62
-8 65 -9 34 -8 70 -15 90 -19 44 -7 183 -56 256 -91 76 -36 188 -107 217 -137
10 -10 24 -18 32 -18 13 0 92 132 144 240 61 125 161 395 177 478 3 13 11 42
19 65 7 23 16 56 18 72 3 17 9 48 15 70 6 22 13 52 16 68 3 15 7 35 10 45 4
16 7 31 22 130 3 20 9 62 14 92 5 30 12 79 15 109 4 30 8 61 10 70 1 9 6 52 9
96 4 44 9 103 11 130 21 237 21 746 0 1050 -4 50 -8 110 -10 135 -1 25 -5 70
-9 100 -4 30 -8 73 -10 95 -11 112 -18 172 -22 195 -3 14 -7 43 -10 65 -6 57
-12 99 -14 105 -2 3 -2 8 -1 12 0 4 -6 42 -14 85 -7 43 -17 94 -20 113 -13 79
-20 118 -29 163 -3 15 -8 37 -10 50 -2 12 -13 61 -25 109 -11 48 -23 99 -25
112 -13 73 -97 354 -116 388 -6 10 -10 22 -10 28 0 5 -12 35 -27 67 -15 32
-27 61 -28 65 -1 22 -15 16 -16 -8z"/>
<path d="M6276 1043 c-1 -1 -83 -5 -181 -8 -99 -3 -241 -7 -315 -10 -230 -8
-623 -21 -880 -30 -280 -9 -466 -15 -615 -21 -82 -3 -206 -7 -275 -9 -237 -8
-456 -15 -595 -20 -77 -3 -214 -7 -305 -10 -179 -6 -390 -14 -458 -18 -23 -1
-42 2 -42 6 0 5 -5 5 -12 1 -6 -4 -48 -9 -92 -10 -184 -5 -468 -15 -576 -19
-63 -3 -196 -7 -295 -10 -338 -11 -410 -13 -900 -30 -77 -3 -207 -7 -290 -11
-235 -8 -336 -12 -393 -13 l-53 -1 65 -127 c35 -71 125 -249 199 -398 l135
-270 2462 -3 2463 -2 111 31 c527 149 778 341 984 752 30 61 55 117 55 124 0
7 5 13 10 13 6 0 8 3 4 6 -3 4 3 24 13 45 11 21 20 40 20 43 0 5 -239 3 -244
-1z"/>
</g>
</svg>
