<?xml version="1.0" encoding="UTF-8"?>
<svg width="124px" height="59px" viewBox="0 0 124 59" version="1.1" xmlns="http://www.w3.org/2000/svg" xmlns:xlink="http://www.w3.org/1999/xlink">
    <title>mm-logo</title>
    <g id="Page-1" stroke="none" stroke-width="1" fill="none" fill-rule="evenodd">
        <g id="mm-logo" transform="translate(0.000000, 1.000000)" fill-rule="nonzero">
            <path d="M103.630122,50.2840101 C102.746122,49.7009101 101.772122,49.2863101 100.850122,48.7680101 C100.252122,48.4311101 99.6151222,48.1330101 99.0961222,47.7054101 C98.2121222,46.9798101 98.3941222,45.5545101 99.3171222,44.9325101 C100.642122,44.0514101 102.837122,44.5437101 103.071122,46.3449101 C103.071122,46.3837101 103.110122,46.4097101 103.149122,46.4097101 L105.150122,46.4097101 C105.202122,46.4097101 105.241122,46.3708101 105.228122,46.3190101 C105.124122,45.0750101 104.643122,44.0384101 103.760122,43.3775601 C102.915122,42.7426301 101.954122,42.4057301 100.927122,42.4057301 C95.6401222,42.4057301 95.1591222,47.9905101 98.0041222,49.7528101 C98.3291222,49.9601101 101.122122,51.3595101 102.110122,51.9685101 C103.097122,52.5775101 103.409122,53.6919101 102.980122,54.5730101 C102.590122,55.3764101 101.577122,55.9336101 100.564122,55.8688101 C99.4591222,55.8040101 98.6021222,55.2080101 98.3031222,54.2750101 C98.2511222,54.1066101 98.2251222,53.7826101 98.2251222,53.6401101 C98.2251222,53.6012101 98.1861222,53.5623101 98.1471222,53.5623101 L95.9781222,53.5623101 C95.9391222,53.5623101 95.9001222,53.6012101 95.9001222,53.6401101 C95.9001222,55.2080101 96.2901222,56.0761101 97.3551222,56.8666101 C98.3551222,57.6181101 99.4461222,57.9291101 100.577122,57.9291101 C103.539122,57.9291101 105.072122,56.2575101 105.383122,54.5212101 C105.656122,52.8237101 105.150122,51.2947101 103.630122,50.2840101 Z" id="Path" fill="#161616"></path>
            <path d="M9.43102222,42.6908901 L8.46972222,42.6908901 L7.41742222,42.6908901 C7.37842222,42.6908901 7.35242222,42.7168001 7.33942222,42.7427201 L5.55972222,48.5996101 C5.53372222,48.6774101 5.42982222,48.6774101 5.40382222,48.5996101 L3.62402222,42.7427201 C3.61102222,42.7038401 3.58502222,42.6908901 3.54602222,42.6908901 L2.49382222,42.6908901 L1.53242222,42.6908901 L0.233322222,42.6908901 C0.194322222,42.6908901 0.155322222,42.7297601 0.155322222,42.7686301 L0.155322222,57.7219101 C0.155322222,57.7607101 0.194322222,57.7996101 0.233322222,57.7996101 L2.40282222,57.7996101 C2.44182222,57.7996101 2.48082222,57.7607101 2.48082222,57.7219101 L2.48082222,46.3579101 C2.48082222,46.2672101 2.61072222,46.2543101 2.63672222,46.3320101 L4.42942222,52.2278101 L4.55932222,52.6424101 C4.57232222,52.6813101 4.59832222,52.6943101 4.63732222,52.6943101 L6.30022222,52.6943101 C6.33912222,52.6943101 6.36512222,52.6683101 6.37812222,52.6424101 L6.50802222,52.2278101 L8.30082222,46.3320101 C8.32682222,46.2413101 8.45672222,46.2672101 8.45672222,46.3579101 L8.45672222,57.7219101 C8.45672222,57.7607101 8.49572222,57.7996101 8.53462222,57.7996101 L10.7042222,57.7996101 C10.7431222,57.7996101 10.7821222,57.7607101 10.7821222,57.7219101 L10.7821222,42.7686301 C10.7821222,42.7297601 10.7431222,42.6908901 10.7042222,42.6908901 L9.43102222,42.6908901 Z" id="Path" fill="#161616"></path>
            <path d="M70.4111222,42.6908901 C70.3721222,42.6908901 70.3461222,42.7168001 70.3331222,42.7427201 L68.5541222,48.5996101 C68.5281222,48.6774101 68.4241222,48.6774101 68.3981222,48.5996101 L66.6181222,42.7427201 C66.6051222,42.7038401 66.5791222,42.6908901 66.5401222,42.6908901 L63.2401222,42.6908901 C63.2011222,42.6908901 63.1621222,42.7297601 63.1621222,42.7686301 L63.1621222,57.7219101 C63.1621222,57.7607101 63.2011222,57.7996101 63.2401222,57.7996101 L65.4101222,57.7996101 C65.4491222,57.7996101 65.4881222,57.7607101 65.4881222,57.7219101 L65.4881222,46.3579101 C65.4881222,46.2672101 65.6181222,46.2543101 65.6441222,46.3320101 L67.4361222,52.2278101 L67.5661222,52.6424101 C67.5791222,52.6813101 67.6051222,52.6943101 67.6441222,52.6943101 L69.3071222,52.6943101 C69.3461222,52.6943101 69.3721222,52.6683101 69.3851222,52.6424101 L69.5151222,52.2278101 L71.3081222,46.3320101 C71.3341222,46.2413101 71.4641222,46.2672101 71.4641222,46.3579101 L71.4641222,57.7219101 C71.4641222,57.7607101 71.5031222,57.7996101 71.5421222,57.7996101 L73.7111222,57.7996101 C73.7501222,57.7996101 73.7891222,57.7607101 73.7891222,57.7219101 L73.7891222,42.7686301 C73.7891222,42.7297601 73.7501222,42.6908901 73.7111222,42.6908901 L70.4111222,42.6908901 Z" id="Path" fill="#161616"></path>
            <path d="M42.4284222,42.6908901 L38.3881222,42.6908901 L36.2186222,42.6908901 L32.1784222,42.6908901 C32.1394222,42.6908901 32.1004222,42.7297601 32.1004222,42.7686301 L32.1004222,44.6345101 C32.1004222,44.6734101 32.1394222,44.7123101 32.1784222,44.7123101 L36.1407222,44.7123101 L36.1407222,57.7219101 C36.1407222,57.7607101 36.1796222,57.7996101 36.2186222,57.7996101 L38.3881222,57.7996101 C38.4271222,57.7996101 38.4661222,57.7607101 38.4661222,57.7219101 L38.4661222,44.7123101 L42.4284222,44.7123101 C42.4674222,44.7123101 42.5063222,44.6734101 42.5063222,44.6345101 L42.5063222,42.7686301 C42.5063222,42.7297601 42.4804222,42.6908901 42.4284222,42.6908901 Z" id="Path" fill="#161616"></path>
            <path d="M55.2251222,57.7994101 L57.1991222,57.7994101 C57.2511222,57.7994101 57.2901222,57.7476101 57.2771222,57.6958101 L53.1981222,42.6907101 C53.1851222,42.6518401 53.1591222,42.6388801 53.1201222,42.6388801 L52.3668222,42.6388801 L51.0417222,42.6388801 L50.2882222,42.6388801 C50.2492222,42.6388801 50.2232222,42.6648001 50.2102222,42.6907101 L46.1310222,57.6958101 C46.1180222,57.7476101 46.1570222,57.7994101 46.2090222,57.7994101 L48.1836222,57.7994101 C48.2226222,57.7994101 48.2486222,57.7735101 48.2616222,57.7476101 L49.4438222,53.3808101 C49.4567222,53.3420101 49.4827222,53.3290101 49.5217222,53.3290101 L53.8871222,53.3290101 C53.9261222,53.3290101 53.9521222,53.3549101 53.9651222,53.3808101 L55.1471222,57.7476101 C55.1601222,57.7735101 55.1991222,57.7994101 55.2251222,57.7994101 Z M50.0413222,51.1910101 L51.6263222,45.3470101 C51.6522222,45.2693101 51.7562222,45.2693101 51.7822222,45.3470101 L53.3671222,51.1910101 C53.3801222,51.2428101 53.3411222,51.2946101 53.2891222,51.2946101 L50.1193222,51.2946101 C50.0673222,51.2946101 50.0284222,51.2428101 50.0413222,51.1910101 Z" id="Shape" fill="#161616"></path>
            <path d="M88.8981222,57.7994101 L90.8721222,57.7994101 C90.9241222,57.7994101 90.9631222,57.7476101 90.9501222,57.6958101 L86.8711222,42.6907101 C86.8581222,42.6518401 86.8321222,42.6388801 86.7931222,42.6388801 L86.0401222,42.6388801 L84.7151222,42.6388801 L83.9611222,42.6388801 C83.9221222,42.6388801 83.8961222,42.6648001 83.8831222,42.6907101 L79.8041222,57.6958101 C79.7911222,57.7476101 79.8301222,57.7994101 79.8821222,57.7994101 L81.8571222,57.7994101 C81.8961222,57.7994101 81.9221222,57.7735101 81.9351222,57.7476101 L83.1171222,53.3808101 C83.1301222,53.3420101 83.1561222,53.3290101 83.1951222,53.3290101 L87.5601222,53.3290101 C87.5991222,53.3290101 87.6251222,53.3549101 87.6381222,53.3808101 L88.8201222,57.7476101 C88.8331222,57.7735101 88.8591222,57.7994101 88.8981222,57.7994101 Z M83.7141222,51.1910101 L85.2991222,45.3470101 C85.3251222,45.2693101 85.4291222,45.2693101 85.4551222,45.3470101 L87.0401222,51.1910101 C87.0531222,51.2428101 87.0141222,51.2946101 86.9621222,51.2946101 L83.7921222,51.2946101 C83.7401222,51.2946101 83.7011222,51.2428101 83.7141222,51.1910101 Z" id="Shape" fill="#161616"></path>
            <path d="M19.5901222,55.5838101 L19.5901222,50.9449101 C19.5901222,50.9061101 19.6291222,50.8672101 19.6681222,50.8672101 L25.4491222,50.8672101 C25.4881222,50.8672101 25.5271222,50.8283101 25.5271222,50.7894101 L25.5271222,48.9235101 C25.5271222,48.8847101 25.4881222,48.8458101 25.4491222,48.8458101 L19.6681222,48.8458101 C19.6291222,48.8458101 19.5901222,48.8069101 19.5901222,48.7680101 L19.5901222,44.8030101 C19.5901222,44.7641101 19.6291222,44.7252101 19.6681222,44.7252101 L26.2416222,44.7252101 C26.2806222,44.7252101 26.3196222,44.6863101 26.3196222,44.6475101 L26.3196222,42.7815701 C26.3196222,42.7427001 26.2806222,42.7038201 26.2416222,42.7038201 L19.5901222,42.7038201 L17.3427222,42.7038201 C17.3037222,42.7038201 17.2647222,42.7427001 17.2647222,42.7815701 L17.2647222,44.7252101 L17.2647222,48.8587101 L17.2647222,50.8802101 L17.2647222,55.6745101 L17.2647222,57.7218101 C17.2647222,57.7607101 17.3037222,57.7996101 17.3427222,57.7996101 L19.5901222,57.7996101 L26.5144222,57.7996101 C26.5534222,57.7996101 26.5924222,57.7607101 26.5924222,57.7218101 L26.5924222,55.7523101 C26.5924222,55.7134101 26.5534222,55.6745101 26.5144222,55.6745101 L19.6551222,55.6745101 C19.6161222,55.6616101 19.5901222,55.6356101 19.5901222,55.5838101 Z" id="Path" fill="#161616"></path>
            <path d="M123.454122,57.6700101 L115.945122,49.9342101 C115.919122,49.9083101 115.919122,49.8565101 115.945122,49.8306101 L122.701122,42.8334001 C122.753122,42.7815701 122.714122,42.7038201 122.649122,42.7038201 L119.882122,42.7038201 C119.856122,42.7038201 119.843122,42.7167801 119.830122,42.7297401 L114.101122,48.6644101 C114.049122,48.7162101 113.971122,48.6773101 113.971122,48.6125101 L113.971122,42.7815701 C113.971122,42.7427001 113.932122,42.7038201 113.893122,42.7038201 L111.723122,42.7038201 C111.684122,42.7038201 111.645122,42.7427001 111.645122,42.7815701 L111.645122,57.7348101 C111.645122,57.7737101 111.684122,57.8126101 111.723122,57.8126101 L113.893122,57.8126101 C113.932122,57.8126101 113.971122,57.7737101 113.971122,57.7348101 L113.971122,51.1523101 C113.971122,51.0875101 114.062122,51.0486101 114.101122,51.1004101 L120.596122,57.7866101 C120.609122,57.7996101 120.635122,57.8126101 120.648122,57.8126101 L123.415122,57.8126101 C123.467122,57.7996101 123.506122,57.7089101 123.454122,57.6700101 Z" id="Path" fill="#161616"></path>
            <polygon id="Path" stroke="#E17726" stroke-width="0.25" fill="#E17726" stroke-linecap="round" stroke-linejoin="round" points="76.9583 0 63.8242 9.7183 66.2666 3.99099"></polygon>
            <polygon id="Path" stroke="#E27625" stroke-width="0.25" fill="#E27625" stroke-linecap="round" stroke-linejoin="round" points="46.66284 0 59.68 9.809 57.3546 3.99098"></polygon>
            <polygon id="Path" stroke="#E27625" stroke-width="0.25" fill="#E27625" stroke-linecap="round" stroke-linejoin="round" points="72.2292 22.5334 68.7346 27.872 76.2175 29.9323 78.3611 22.6501"></polygon>
            <polygon id="Path" stroke="#E27625" stroke-width="0.25" fill="#E27625" stroke-linecap="round" stroke-linejoin="round" points="45.27271 22.6501 47.40325 29.9323 54.8732 27.872 51.39154 22.5334"></polygon>
            <polygon id="Path" stroke="#E27625" stroke-width="0.25" fill="#E27625" stroke-linecap="round" stroke-linejoin="round" points="54.4704 13.5149 52.39185 16.6507 59.7968 16.9876 59.55 9.0186"></polygon>
            <polygon id="Path" stroke="#E27625" stroke-width="0.25" fill="#E27625" stroke-linecap="round" stroke-linejoin="round" points="69.1503 13.515 63.9929 8.92798 63.824 16.9877 71.2289 16.6508"></polygon>
            <polygon id="Path" stroke="#E27625" stroke-width="0.25" fill="#E27625" stroke-linecap="round" stroke-linejoin="round" points="54.8733 27.872 59.3552 25.7081 55.4969 22.7019"></polygon>
            <polygon id="Path" stroke="#E27625" stroke-width="0.25" fill="#E27625" stroke-linecap="round" stroke-linejoin="round" points="64.2659 25.7081 68.7348 27.872 68.1242 22.7019"></polygon>
            <polygon id="Path" stroke="#D5BFB2" stroke-width="0.25" fill="#D5BFB2" stroke-linecap="round" stroke-linejoin="round" points="68.7348 27.8722 64.2659 25.7083 64.6296 28.6108 64.5906 29.8418"></polygon>
            <polygon id="Path" stroke="#D5BFB2" stroke-width="0.25" fill="#D5BFB2" stroke-linecap="round" stroke-linejoin="round" points="54.8733 27.8722 59.0305 29.8418 59.0045 28.6108 59.3552 25.7083"></polygon>
            <polygon id="Path" stroke="#233447" stroke-width="0.25" fill="#233447" stroke-linecap="round" stroke-linejoin="round" points="59.1083 20.7842 55.3928 19.6958 58.017 18.4907"></polygon>
            <polygon id="Path" stroke="#233447" stroke-width="0.25" fill="#233447" stroke-linecap="round" stroke-linejoin="round" points="64.5127 20.7842 65.604 18.4907 68.2412 19.6958"></polygon>
            <polygon id="Path" stroke="#CC6228" stroke-width="0.25" fill="#CC6228" stroke-linecap="round" stroke-linejoin="round" points="54.8732 27.872 55.5228 22.5334 51.3916 22.6501"></polygon>
            <polygon id="Path" stroke="#CC6228" stroke-width="0.25" fill="#CC6228" stroke-linecap="round" stroke-linejoin="round" points="68.0981 22.5334 68.7347 27.872 72.2293 22.6501"></polygon>
            <polygon id="Path" stroke="#CC6228" stroke-width="0.25" fill="#CC6228" stroke-linecap="round" stroke-linejoin="round" points="71.2289 16.6506 63.824 16.9875 64.5125 20.7842 65.6038 18.4906 68.241 19.6957"></polygon>
            <polygon id="Path" stroke="#CC6228" stroke-width="0.25" fill="#CC6228" stroke-linecap="round" stroke-linejoin="round" points="55.3928 19.6957 58.017 18.4906 59.1083 20.7842 59.7968 16.9875 52.39185 16.6506"></polygon>
            <polygon id="Path" stroke="#E27525" stroke-width="0.25" fill="#E27525" stroke-linecap="round" stroke-linejoin="round" points="52.39209 16.6506 55.497 22.7019 55.393 19.6957"></polygon>
            <polygon id="Path" stroke="#E27525" stroke-width="0.25" fill="#E27525" stroke-linecap="round" stroke-linejoin="round" points="68.2412 19.6957 68.1243 22.7019 71.2292 16.6506"></polygon>
            <polygon id="Path" stroke="#E27525" stroke-width="0.25" fill="#E27525" stroke-linecap="round" stroke-linejoin="round" points="59.7972 16.9875 59.1086 20.7842 59.979 25.2675 60.1739 19.3588"></polygon>
            <polygon id="Path" stroke="#E27525" stroke-width="0.25" fill="#E27525" stroke-linecap="round" stroke-linejoin="round" points="63.8242 16.9875 63.4604 19.3459 63.6423 25.2675 64.5127 20.7842"></polygon>
            <polygon id="Path" stroke="#F5841F" stroke-width="0.25" fill="#F5841F" stroke-linecap="round" stroke-linejoin="round" points="64.5127 20.7843 63.6423 25.2676 64.2659 25.7082 68.1243 22.702 68.2412 19.6958"></polygon>
            <polygon id="Path" stroke="#F5841F" stroke-width="0.25" fill="#F5841F" stroke-linecap="round" stroke-linejoin="round" points="55.3928 19.6958 55.4968 22.702 59.3551 25.7082 59.9787 25.2676 59.1083 20.7843"></polygon>
            <polygon id="Path" stroke="#C0AC9D" stroke-width="0.25" fill="#C0AC9D" stroke-linecap="round" stroke-linejoin="round" points="64.5907 29.8417 64.6296 28.6107 64.2919 28.3256 59.3293 28.3256 59.0045 28.6107 59.0305 29.8417 54.8733 27.8721 56.3283 29.0642 59.2773 31.0986 64.3308 31.0986 67.2928 29.0642 68.7348 27.8721"></polygon>
            <polygon id="Path" stroke="#161616" stroke-width="0.25" fill="#161616" stroke-linecap="round" stroke-linejoin="round" points="64.2658 25.7081 63.6422 25.2676 59.9787 25.2676 59.3552 25.7081 59.0044 28.6107 59.3292 28.3256 64.2918 28.3256 64.6296 28.6107"></polygon>
            <polygon id="Path" stroke="#763E1A" stroke-width="0.25" fill="#763E1A" stroke-linecap="round" stroke-linejoin="round" points="77.5168 10.3532 78.6211 4.98873 76.9582 0 64.2659 9.3944 69.1505 13.5149 76.0488 15.5234 77.5688 13.7482 76.9063 13.2687 77.9585 12.3099 77.1531 11.6879 78.2054 10.8845"></polygon>
            <polygon id="Path" stroke="#763E1A" stroke-width="0.25" fill="#763E1A" stroke-linecap="round" stroke-linejoin="round" points="45 4.98873 46.11724 10.3532 45.40273 10.8845 46.468 11.6879 45.66255 12.3099 46.71483 13.2687 46.05228 13.7482 47.57225 15.5234 54.4706 13.5149 59.3552 9.3944 46.66287 0"></polygon>
            <polygon id="Path" stroke="#F5841F" stroke-width="0.25" fill="#F5841F" stroke-linecap="round" stroke-linejoin="round" points="76.0489 15.5233 69.1506 13.5149 71.2292 16.6507 68.1243 22.7019 72.2295 22.6501 78.3613 22.6501"></polygon>
            <polygon id="Path" stroke="#F5841F" stroke-width="0.25" fill="#F5841F" stroke-linecap="round" stroke-linejoin="round" points="54.4704 13.5149 47.57214 15.5233 45.27271 22.6501 51.39154 22.6501 55.4967 22.7019 52.39186 16.6507"></polygon>
            <polygon id="Path" stroke="#F5841F" stroke-width="0.25" fill="#F5841F" stroke-linecap="round" stroke-linejoin="round" points="63.8241 16.9876 64.2658 9.3943 66.2664 3.99097 57.3545 3.99097 59.3551 9.3943 59.7968 16.9876 59.9657 19.3718 59.9787 25.2676 63.6422 25.2676 63.6552 19.3718"></polygon>
        </g>
    </g>
</svg>