<svg height="512pt" viewBox="-23 0 511 512" width="512pt" xmlns="http://www.w3.org/2000/svg"><path d="m238.761719 512h-196.214844c-45.785156 0-41.96875-41.96875-41.96875-41.96875 0-36.890625 29.90625-66.796875 66.796875-66.796875h104.589844c36.890625 0 66.796875 29.90625 66.796875 66.796875zm0 0" fill="#00a5fb"/><path d="m225.90625 335.828125c0 58.671875-47.5625 106.234375-106.234375 106.234375-58.675781 0-106.238281-47.5625-106.238281-106.234375 0-58.675781 47.5625-106.238281 106.238281-106.238281 58.671875 0 106.234375 47.5625 106.234375 106.238281zm0 0" fill="#00c5fd"/><path d="m227.566406 512h196.214844c45.785156 0 41.96875-41.96875 41.96875-41.96875 0-36.890625-29.90625-66.796875-66.796875-66.796875h-104.589844c-36.890625 0-66.796875 29.90625-66.796875 66.796875zm0 0" fill="#00a5fb"/><path d="m452.894531 335.828125c0 58.671875-47.5625 106.234375-106.238281 106.234375-58.671875 0-106.234375-47.5625-106.234375-106.234375 0-58.675781 47.5625-106.238281 106.234375-106.238281 58.675781 0 106.238281 47.5625 106.238281 106.238281zm0 0" fill="#00c5fd"/><path d="m352.253906 512h-238.179687v-63.59375c0-36.890625 29.90625-66.796875 66.796875-66.796875h104.585937c36.890625 0 66.796875 29.90625 66.796875 66.796875zm0 0" fill="#5ad6ff"/><path d="m339.402344 314.199219c0 58.671875-47.566406 106.238281-106.238282 106.238281-58.671874 0-106.238281-47.566406-106.238281-106.238281s47.566407-106.234375 106.238281-106.234375c58.671876 0 106.238282 47.5625 106.238282 106.234375zm0 0" fill="#a4e7ff"/><g fill="#454545"><path d="m282 337.132812c-4.265625 0-7.722656-3.457031-7.722656-7.726562v-12.824219c0-4.269531 3.457031-7.726562 7.722656-7.726562 4.269531 0 7.726562 3.457031 7.726562 7.726562v12.824219c0 4.269531-3.457031 7.726562-7.726562 7.726562zm0 0"/><path d="m184.328125 337.132812c-4.269531 0-7.726563-3.457031-7.726563-7.726562v-12.824219c0-4.269531 3.457032-7.726562 7.726563-7.726562 4.265625 0 7.722656 3.457031 7.722656 7.726562v12.824219c0 4.269531-3.457031 7.726562-7.722656 7.726562zm0 0"/><path d="m238.441406 321.6875c-1.730468 2.542969-4.253906 2.847656-5.277344 2.847656-1.023437 0-3.589843-.277344-5.277343-2.847656-2.34375-3.566406-7.132813-4.558594-10.699219-2.214844s-4.558594 7.132813-2.214844 10.699219c4.035156 6.148437 10.835938 9.816406 18.191406 9.816406 7.355469 0 14.15625-3.667969 18.191407-9.816406 2.34375-3.566406 1.351562-8.355469-2.214844-10.699219-1.308594-.859375-7.089844-3.082031-10.699219 2.214844zm0 0"/></g><path d="m397.378906 0h-326.347656c-19.425781 0-35.171875 15.746094-35.171875 35.171875v98.332031c0 19.421875 15.746094 35.171875 35.171875 35.171875h18.75l12.804688 17.820313c6.15625 8.5625 18.898437 8.5625 25.054687 0l12.804687-17.820313h68.429688l12.804688 17.820313c6.152343 8.5625 18.898437 8.5625 25.050781 0l12.804687-17.820313h68.429688l12.804687 17.820313c6.15625 8.5625 18.898438 8.5625 25.050781 0l12.804688-17.820313h18.753906c19.421875 0 35.171875-15.746093 35.171875-35.171875v-98.332031c-.003906-19.425781-15.75-35.171875-35.171875-35.171875zm0 0" fill="#76e7e7"/><path d="m246.730469 186.496094 12.804687-17.820313h-50.660156l12.804688 17.820313c6.152343 8.5625 18.894531 8.5625 25.050781 0zm0 0" fill="#00d2ce"/><path d="m365.820312 186.496094 12.804688-17.820313h-50.660156l12.804687 17.820313c6.15625 8.5625 18.898438 8.5625 25.050781 0zm0 0" fill="#00d2ce"/><path d="m127.636719 186.496094 12.808593-17.820313h-50.664062l12.804688 17.820313c6.15625 8.5625 18.898437 8.5625 25.050781 0zm0 0" fill="#00d2ce"/><path d="m125.339844 49.457031 7.035156 14.253907 15.734375 2.285156c9.355469 1.359375 13.089844 12.859375 6.320313 19.457031l-11.382813 11.09375 2.6875 15.671875c1.597656 9.316406-8.183594 16.421875-16.550781 12.023438l-14.070313-7.398438-14.070312 7.398438c-8.371094 4.398437-18.148438-2.707032-16.550781-12.023438l2.6875-15.671875-11.382813-11.09375c-6.769531-6.597656-3.035156-18.097656 6.320313-19.457031l15.730468-2.285156 7.039063-14.253907c4.183593-8.476562 16.269531-8.476562 20.453125 0zm0 0" fill="#f9ee80"/><path d="m244.433594 49.457031 7.035156 14.253907 15.730469 2.285156c9.355469 1.359375 13.089843 12.859375 6.320312 19.457031l-11.382812 11.09375 2.6875 15.671875c1.597656 9.316406-8.179688 16.421875-16.550781 12.023438l-14.070313-7.398438-14.070313 7.398438c-8.367187 4.398437-18.148437-2.707032-16.550781-12.023438l2.6875-15.671875-11.382812-11.09375c-6.769531-6.597656-3.03125-18.097656 6.320312-19.457031l15.734375-2.285156 7.035156-14.253907c4.183594-8.476562 16.273438-8.476562 20.457032 0zm0 0" fill="#f9ee80"/><path d="m363.523438 49.457031 7.035156 14.253907 15.730468 2.285156c9.355469 1.359375 13.089844 12.859375 6.324219 19.457031l-11.386719 11.09375 2.6875 15.671875c1.597657 9.316406-8.179687 16.421875-16.546874 12.023438l-14.074219-7.398438-14.070313 7.398438c-8.367187 4.398437-18.148437-2.707032-16.550781-12.023438l2.6875-15.671875-11.382813-11.09375c-6.769531-6.597656-3.03125-18.097656 6.320313-19.457031l15.734375-2.285156 7.035156-14.253907c4.183594-8.476562 16.273438-8.476562 20.457032 0zm0 0" fill="#f9ee80"/></svg>